<?xml version="1.0" encoding="UTF-8"?>
<svg width="256px" height="256px" viewBox="0 0 256 256" version="1.1" xmlns="http://www.w3.org/2000/svg" xmlns:xlink="http://www.w3.org/1999/xlink">
    <!-- Generator: Sketch 55.2 (78181) - https://sketchapp.com -->
    <title>Icon</title>
    <desc>Created with Sketch.</desc>
    <g id="Icon" stroke="none" stroke-width="1" fill="none" fill-rule="evenodd">
        <rect fill="#287DFA" x="0" y="0" width="256" height="256"></rect>
        <g id="tito-wordmark-blue" transform="translate(32.000000, 87.000000)" fill="#FFFFFF" fill-rule="nonzero">
            <polygon id="Fill-1" points="55 0 0 0 0 15.6140166 18.8808788 15.6140166 18.8808788 83 36.1191212 83 36.1191212 15.6140166 55 15.6140166"></polygon>
            <polygon id="Fill-3" points="65 15 80 15 80 0 65 0"></polygon>
            <polygon id="Fill-4" points="65 83 80 83 80 24 65 24"></polygon>
            <path d="M159.5,21 C141.550804,21 127,34.8792276 127,52 C127,69.1215667 141.550804,83 159.5,83 C177.449196,83 192,69.1215667 192,52 C192.000836,34.8792276 177.449196,21 159.5,21 Z M141.94373,51.9999986 C141.94373,42.311253 150.178456,34.456591 160.336013,34.456591 C170.493569,34.456591 178.728296,42.311253 178.728296,51.9999986 C178.728296,52.7639343 178.671447,53.5143137 178.572798,54.2527316 C177.057942,43.1158575 166.212347,41.882237 162.73955,41.882237 C159.003408,41.882237 157.827974,42.3806293 155.737942,43.6270086 L155.737942,55.5884229 C155.737942,55.5884229 157.567138,54.3922815 160.022508,54.3922815 C162.478714,54.3922815 167.546624,55.7383392 167.546624,61.5196894 C167.546624,67.2866861 163.445145,69.5234706 159.519228,69.5234706 C150.200193,69.5226728 141.94373,61.4271877 141.94373,51.9999986 Z" id="Fill-5"></path>
            <path d="M122,35.3299622 L122,22.1839297 L110.390244,22.1839297 L110.390244,0 L95.4634146,0 L95.4634146,22.1839297 L88,22.1839297 L88,35.3299622 L95.4634146,35.3299622 L95.4634146,64.0869083 C95.4634146,64.0869083 95.4634146,69.2894502 95.4634146,69.8382974 C95.4634146,70.387144 95.4617563,83.5151009 121.170732,82.984333 L121.170732,69.8382974 C121.170732,69.8382974 110.390244,70.5826914 110.390244,64.0869083 L110.390244,35.3299622 L122,35.3299622 Z" id="Fill-6"></path>
        </g>
    </g>
</svg>